<?xml version="1.0" encoding="UTF-8" standalone="no"?>
<svg
   xmlns:dc="http://purl.org/dc/elements/1.1/"
   xmlns:cc="http://creativecommons.org/ns#"
   xmlns:rdf="http://www.w3.org/1999/02/22-rdf-syntax-ns#"
   xmlns:svg="http://www.w3.org/2000/svg"
   xmlns="http://www.w3.org/2000/svg"
   xmlns:sodipodi="http://sodipodi.sourceforge.net/DTD/sodipodi-0.dtd"
   xmlns:inkscape="http://www.inkscape.org/namespaces/inkscape"
   width="210mm"
   height="297mm"
   viewBox="0 0 210 297"
   version="1.1"
   id="svg8"
   inkscape:version="1.0 (4035a4fb49, 2020-05-01)"
   sodipodi:docname="layout.svg">
  <defs
     id="defs2" />
  <sodipodi:namedview
     id="base"
     pagecolor="#ffffff"
     bordercolor="#666666"
     borderopacity="1.0"
     inkscape:pageopacity="0.0"
     inkscape:pageshadow="2"
     inkscape:zoom="2.8284271"
     inkscape:cx="153.33302"
     inkscape:cy="246.21596"
     inkscape:document-units="mm"
     inkscape:current-layer="layer1"
     inkscape:document-rotation="0"
     showgrid="false"
     inkscape:window-width="1920"
     inkscape:window-height="1054"
     inkscape:window-x="0"
     inkscape:window-y="26"
     inkscape:window-maximized="1" />
  <metadata
     id="metadata5">
    <rdf:RDF>
      <cc:Work
         rdf:about="">
        <dc:format>image/svg+xml</dc:format>
        <dc:type
           rdf:resource="http://purl.org/dc/dcmitype/StillImage" />
        <dc:title></dc:title>
      </cc:Work>
    </rdf:RDF>
  </metadata>
  <g
     inkscape:label="Layer 1"
     inkscape:groupmode="layer"
     id="layer1"
     style="display:inline">
    <path
       id="path1020"
       style="fill:none;stroke:#000000;stroke-width:0.377953;stroke-miterlimit:4;stroke-dasharray:none;stroke-opacity:1"
       d="m 150.03398,0.18870072 0.007,1.46754928 V 92.597656 C 145.86946,139.98492 115.394,154.72181 86.162109,157.06836 H 1.3710938 c -0.1423863,0 -0.72821831,-0.005 -0.72821831,-0.005 0,0 -0.002565,0.346 -0.00225,0.76238 v 44.60156 c 0,38.51416 0.001953,44.60938 0.001953,44.60938 l 7.71484381,0.004 c 0.1768516,8e-5 0.3183593,0.14151 0.3183593,0.31836 v 83.74023 c 0.086225,0.0324 0.171675,0.0663 0.2695313,0.0762 4.8734731,-0.26132 9.7921111,0.237 14.6738281,0.0176 5.348125,-0.007 7.817943,-0.003 10.1875,0 v -0.004 h 7.785156 v 23.75586 1.18555 0.59375 0.43754 59.29101 c 3.405866,0.17471 23.877224,0.18751 138.875003,0.1875 h 139.58398 v -13.51757 c -0.0271,-0.67588 -0.0595,-1.11856 -0.0996,-1.09375 -0.0886,0.0548 -0.1176,0.0292 -0.0644,-0.0566 0.1293,-0.20947 0.13722,-0.61474 0.11719,-6.42969 l -0.0176,-5.01563 -0.83203,-0.90234 c -0.45834,-0.49599 -0.94946,-0.98994 -1.0918,-1.09766 -0.14232,-0.10767 -2.26702,-2.18283 -4.7207,-4.61132 -2.45368,-2.4285 -4.51715,-4.46454 -4.58594,-4.5254 -0.099,-0.0874 -3.71423,-3.68642 -5.25391,-5.23046 -4.74035,-4.75375 -6.04378,-6.58625 -6.88281,-9.67969 -0.34795,-1.2828 -0.37028,-1.66498 -0.39258,-6.7207 -0.0131,-2.94801 -0.0312,-6.43977 -0.041,-7.75977 -0.01,-1.32 -0.0161,-3.37255 -0.0137,-4.56055 0.002,-1.188 0.004,-4.06839 0.004,-6.40039 6.4e-4,-8.61997 0.10071,-13.35728 0.30469,-14.47851 0.11206,-0.61601 0.20325,-1.2654 0.20117,-1.44141 -0.0124,-1.09565 0.878,-2.12633 2.12109,-2.45508 0.35064,-0.0927 2.50792,-0.2142 4.79297,-0.26953 2.28508,-0.0553 4.28253,-0.16992 4.43946,-0.25391 0.26676,-0.14261 0.28623,-0.59132 0.29492,-6.82617 0.005,-3.67089 0.022,-14.10662 0.0391,-23.18945 0.0288,-15.51043 0.0138,-16.53112 -0.24805,-16.79297 -0.24529,-0.24534 -0.80465,-0.29241 -4.66211,-0.39453 -2.41102,-0.0638 -4.67472,-0.19502 -5.03125,-0.29102 -0.8559,-0.23047 -1.71487,-1.22439 -1.92187,-2.2246 -0.0844,-0.40825 -0.12581,-1.93082 -0.0918,-3.38282 0.0339,-1.452 0.0878,-6.69814 0.1211,-11.66015 -0.0318,-16.99961 -1.60002,-14.73403 13.12495,-14.74214 7.7061,-0.005 9.73746,-0.0117 10.39062,-0.14649 l 0.01,-240.2960307 -68.49447,0.18249023 -0.0936,2.14339387 c -0.0856,1.8121043 -0.18837,2.5319611 -0.45898,3.2402344 -0.19136,0.5007753 -0.36351,0.7697203 -0.36703,0.8313191 -0.003,0.061599 -0.097,0.2025006 -0.20703,0.3125 -0.11002,0.1100012 -0.19922,0.2961563 -0.19922,0.4140625 0,0.1870987 -0.35189,0.9057638 -0.88281,1.8007812 -0.30177,0.5087384 -2.06987,2.2683704 -2.9668,2.9531254 -1.86364,1.422816 -3.5876,2.182942 -5.8125,2.564453 -3.45181,0.591904 -5.86209,0.119451 -9.36523,-1.835938 -0.58656,-0.32741 -2.45877,-1.904412 -2.63867,-2.222656 -0.0802,-0.141868 -0.23121,-0.309997 -0.33594,-0.373047 -0.18293,-0.110133 -0.5568,-0.6880998 -1.78516,-2.7656249 -0.31216,-0.5279996 -0.5664,-1.1393762 -0.5664,-1.359375 2.3e-4,-0.2199998 -0.10904,-0.795297 -0.24219,-1.2792969 -0.28909,-1.0509782 -0.30772,-1.2310704 -0.33984,-3.2402343 l -0.0185,-1.36627606 -75.2522,-0.00557 z m 123.05,8.93043998 h 1.70118 c 1.55361,0 1.76092,0.037314 2.3789,0.4179688 1.38165,0.8510745 1.875,1.2327405 1.875,1.4453125 0,0.120034 0.0649,0.216797 0.14258,0.216797 0.0777,0 0.3288,0.397434 0.55859,0.882812 0.49848,1.052797 0.73947,2.970861 0.42188,3.353516 -0.16668,0.200859 -0.15708,0.244141 0.0527,0.244141 0.16057,-1e-6 0.2202,0.08887 0.16211,0.240234 -0.0507,0.132 -0.22793,0.240234 -0.39453,0.240234 -0.19423,0 -0.30273,0.113265 -0.30273,0.314453 0,0.172573 -0.13621,0.442181 -0.30274,0.59961 -0.16652,0.157428 -0.32882,0.428523 -0.36133,0.603515 -0.0325,0.174987 -0.20196,0.345458 -0.37695,0.378907 -0.17499,0.03344 -0.57091,0.25742 -0.8789,0.496093 -0.308,0.238676 -0.84724,0.542688 -1.19922,0.677735 -0.83754,0.321343 -1.75265,0.483671 -1.90039,0.335937 -0.0647,-0.06466 -0.373,-0.134416 -0.6836,-0.154297 -0.31059,-0.01987 -0.65507,-0.111373 -0.76562,-0.203125 -0.11055,-0.09174 -0.2374,-0.127855 -0.28321,-0.08203 -0.0458,0.04583 -0.31833,-0.136094 -0.60546,-0.404297 -0.40815,-0.381282 -0.57022,-0.449355 -0.74219,-0.30664 -0.17484,0.145096 -0.22071,0.113699 -0.2207,-0.15625 0,-0.195194 -0.10033,-0.339844 -0.23829,-0.339844 -0.13198,0 -0.24023,-0.108239 -0.24023,-0.240234 0,-0.132 -0.10822,-0.240235 -0.24024,-0.240235 -0.13197,0 -0.24672,-0.05314 -0.2539,-0.119141 -0.007,-0.066 -0.0369,-0.299532 -0.0664,-0.519531 -0.0293,-0.22 -0.0922,-0.786495 -0.14062,-1.257812 -0.0484,-0.471318 -0.16849,-0.953253 -0.26563,-1.070313 -0.1265,-0.152269 -0.12814,-0.302517 -0.006,-0.53125 0.20973,-0.392028 0.224,-0.935665 0.0254,-1.007812 -0.0806,-0.02933 -0.10932,-0.251213 -0.0625,-0.492188 0.0468,-0.240971 0.14248,-0.402896 0.21289,-0.359375 0.0704,0.04352 0.28472,-0.173943 0.47657,-0.484375 0.19185,-0.310432 0.61387,-0.757353 0.93554,-0.99414 0.32167,-0.236789 0.81007,-0.6677049 1.08594,-0.9570315 z"
       sodipodi:nodetypes="ccccsccsccscccccccccccsccsccccsscssccccscsscccsssccccccccscssssssssscsccccssssssssssssssssssssssssccsccssssscccs"
       transform="scale(0.26458333)" />
    <rect
       style="fill:none;stroke:none;stroke-width:0.1;stroke-miterlimit:4;stroke-dasharray:none;stroke-opacity:1"
       id="rect1076"
       width="0.9018302"
       height="22.596729"
       x="1.3938471"
       y="65.417114"
       ry="0.0074157715" />
    <rect
       style="fill:none;stroke:none;stroke-width:0.448905;stroke-miterlimit:4;stroke-dasharray:none;stroke-opacity:1"
       id="rect1084"
       width="0.39872515"
       height="27.701746"
       x="-0.11538529"
       y="37.968742"
       ry="1.4565262" />
  </g>
  <g
     inkscape:groupmode="layer"
     id="layer2"
     inkscape:label="Layer 2" />
</svg>
