  0
SECTION
  2
HEADER
  9
$ACADVER
  1
AC1014
  9
$HANDSEED
  5
FFFF
  9
$MEASUREMENT
 70
     1
  0
ENDSEC
  0
SECTION
  2
TABLES
  0
TABLE
  2
VPORT
  5
8
330
0
100
AcDbSymbolTable
 70
     4
  0
VPORT
  5
2E
330
8
100
AcDbSymbolTableRecord
100
AcDbViewportTableRecord
  2
*ACTIVE
 70
     0
 10
0.0
 20
0.0
 11
1.0
 21
1.0
 12
210.0
 22
148.5
 13
0.0
 23
0.0
 14
10.0
 24
10.0
 15
10.0
 25
10.0
 16
0.0
 26
0.0
 36
1.0
 17
0.0
 27
0.0
 37
0.0
 40
341.0
 41
1.24
 42
50.0
 43
0.0
 44
0.0
 50
0.0
 51
0.0
 71
     0
 72
   100
 73
     1
 74
     3
 75
     0
 76
     0
 77
     0
 78
     0
  0
ENDTAB
  0
TABLE
  2
LTYPE
  5
5
330
0
100
AcDbSymbolTable
 70
     1
  0
LTYPE
  5
14
330
5
100
AcDbSymbolTableRecord
100
AcDbLinetypeTableRecord
  2
BYBLOCK
 70
     0
  3

 72
    65
 73
     0
 40
0.0
  0
LTYPE
  5
15
330
5
100
AcDbSymbolTableRecord
100
AcDbLinetypeTableRecord
  2
BYLAYER
 70
     0
  3

 72
    65
 73
     0
 40
0.0
  0
LTYPE
  5
16
330
5
100
AcDbSymbolTableRecord
100
AcDbLinetypeTableRecord
  2
CONTINUOUS
 70
     0
  3
Solid line
 72
    65
 73
     0
 40
0.0
  0
ENDTAB
  0
TABLE
  2
LAYER
  5
2
100
AcDbSymbolTable
 70
3
  0
LAYER
  5
50
100
AcDbSymbolTableRecord
100
AcDbLayerTableRecord
  2
0
 70
0
  6
CONTINUOUS
  0
LAYER
  5
51
100
AcDbSymbolTableRecord
100
AcDbLayerTableRecord
  2
Layer_1
 70
0
  6
CONTINUOUS
  0
LAYER
  5
52
100
AcDbSymbolTableRecord
100
AcDbLayerTableRecord
  2
Layer_2
 70
0
  6
CONTINUOUS
  0
ENDTAB
  0
TABLE
  2
STYLE
  5
3
330
0
100
AcDbSymbolTable
 70
     1
  0
STYLE
  5
11
330
3
100
AcDbSymbolTableRecord
100
AcDbTextStyleTableRecord
  2
STANDARD
 70
     0
 40
0.0
 41
1.0
 50
0.0
 71
     0
 42
2.5
  3
txt
  4

  0
ENDTAB
  0
TABLE
  2
VIEW
  5
6
330
0
100
AcDbSymbolTable
 70
     0
  0
ENDTAB
  0
TABLE
  2
UCS
  5
7
330
0
100
AcDbSymbolTable
 70
     0
  0
ENDTAB
  0
TABLE
  2
APPID
  5
9
330
0
100
AcDbSymbolTable
 70
     2
  0
APPID
  5
12
330
9
100
AcDbSymbolTableRecord
100
AcDbRegAppTableRecord
  2
ACAD
 70
     0
  0
ENDTAB
  0
TABLE
  2
DIMSTYLE
  5
A
330
0
100
AcDbSymbolTable
 70
     1
  0
DIMSTYLE
105
27
330
A
100
AcDbSymbolTableRecord
100
AcDbDimStyleTableRecord
  2
ISO-25
 70
     0
  3

  4

  5

  6

  7

 40
1.0
 41
2.5
 42
0.625
 43
3.75
 44
1.25
 45
0.0
 46
0.0
 47
0.0
 48
0.0
140
2.5
141
2.5
142
0.0
143
0.03937007874016
144
1.0
145
0.0
146
1.0
147
0.625
 71
     0
 72
     0
 73
     0
 74
     0
 75
     0
 76
     0
 77
     1
 78
     8
170
     0
171
     3
172
     1
173
     0
174
     0
175
     0
176
     0
177
     0
178
     0
270
     2
271
     2
272
     2
273
     2
274
     3
340
11
275
     0
280
     0
281
     0
282
     0
283
     0
284
     8
285
     0
286
     0
287
     3
288
     0
  0
ENDTAB
  0
TABLE
  2
BLOCK_RECORD
  5
1
330
0
100
AcDbSymbolTable
 70
     1
  0
BLOCK_RECORD
  5
1F
330
1
100
AcDbSymbolTableRecord
100
AcDbBlockTableRecord
  2
*MODEL_SPACE
  0
BLOCK_RECORD
  5
1B
330
1
100
AcDbSymbolTableRecord
100
AcDbBlockTableRecord
  2
*PAPER_SPACE
  0
ENDTAB
  0
ENDSEC
  0
SECTION
  2
BLOCKS
  0
BLOCK
  5
20
330
1F
100
AcDbEntity
  8
0
100
AcDbBlockBegin
  2
*MODEL_SPACE
 70
     0
 10
0.0
 20
0.0
 30
0.0
  3
*MODEL_SPACE
  1

  0
ENDBLK
  5
21
330
1F
100
AcDbEntity
  8
0
100
AcDbBlockEnd
  0
BLOCK
  5
1C
330
1B
100
AcDbEntity
 67
     1
  8
0
100
AcDbBlockBegin
  2
*PAPER_SPACE
  1

  0
ENDBLK
  5
1D
330
1B
100
AcDbEntity
 67
     1
  8
0
100
AcDbBlockEnd
  0
ENDSEC
  0
SECTION
  2
ENTITIES
  0
SPLINE
  5
100
100
AcDbEntity
  8
Layer_1
 62
7
100
AcDbSpline
 70
8
 71
3
 72
8
 73
4
 74
0
 40
0
 40
0
 40
0
 40
0
 40
1
 40
1
 40
1
 40
1
 10
112.530734
 20
772.441523
 30
0.0
 10
109.402094
 20
736.901075
 30
0.0
 10
86.545499
 20
725.848408
 30
0.0
 10
64.621581
 20
724.088495
 30
0.0
  0
LWPOLYLINE
  5
101
100
AcDbEntity
  8
Layer_1
 62
7
100
AcDbPolyline
 90
3
 70
0
 10
112.525484
 20
841.748238
 30
0.0
 10
112.530734
 20
840.647576
 30
0.0
 10
112.530734
 20
772.441523
 30
0.0
  0
SPLINE
  5
102
100
AcDbEntity
  8
Layer_1
 62
7
100
AcDbSpline
 70
8
 71
3
 72
8
 73
4
 74
0
 40
0
 40
0
 40
0
 40
0
 40
1
 40
1
 40
1
 40
1
 10
1.028320
 20
724.088495
 30
0.0
 10
0.921531
 20
724.088495
 30
0.0
 10
0.482157
 20
724.092245
 30
0.0
 10
0.482157
 20
724.092245
 30
0.0
  0
SPLINE
  5
103
100
AcDbEntity
  8
Layer_1
 62
7
100
AcDbSpline
 70
8
 71
3
 72
8
 73
4
 74
0
 40
0
 40
0
 40
0
 40
0
 40
1
 40
1
 40
1
 40
1
 10
0.482157
 20
724.092245
 30
0.0
 10
0.482157
 20
724.092245
 30
0.0
 10
0.480233
 20
723.832745
 30
0.0
 10
0.480469
 20
723.520460
 30
0.0
  0
LWPOLYLINE
  5
104
100
AcDbEntity
  8
Layer_1
 62
7
100
AcDbPolyline
 90
2
 70
0
 10
64.621581
 20
724.088495
 30
0.0
 10
1.028320
 20
724.088495
 30
0.0
  0
SPLINE
  5
105
100
AcDbEntity
  8
Layer_1
 62
7
100
AcDbSpline
 70
8
 71
3
 72
8
 73
4
 74
0
 40
0
 40
0
 40
0
 40
0
 40
1
 40
1
 40
1
 40
1
 10
0.480469
 20
690.069291
 30
0.0
 10
0.480469
 20
661.183671
 30
0.0
 10
0.481934
 20
656.612256
 30
0.0
 10
0.481934
 20
656.612256
 30
0.0
  0
LWPOLYLINE
  5
106
100
AcDbEntity
  8
Layer_1
 62
7
100
AcDbPolyline
 90
2
 70
0
 10
0.480469
 20
723.520460
 30
0.0
 10
0.480469
 20
690.069291
 30
0.0
  0
SPLINE
  5
107
100
AcDbEntity
  8
Layer_1
 62
7
100
AcDbSpline
 70
8
 71
3
 72
8
 73
4
 74
0
 40
0
 40
0
 40
0
 40
0
 40
1
 40
1
 40
1
 40
1
 10
6.268067
 20
656.609256
 30
0.0
 10
6.400705
 20
656.609196
 30
0.0
 10
6.506836
 20
656.503124
 30
0.0
 10
6.506836
 20
656.370486
 30
0.0
  0
LWPOLYLINE
  5
108
100
AcDbEntity
  8
Layer_1
 62
7
100
AcDbPolyline
 90
2
 70
0
 10
0.481934
 20
656.612256
 30
0.0
 10
6.268067
 20
656.609256
 30
0.0
  0
SPLINE
  5
109
100
AcDbEntity
  8
Layer_1
 62
7
100
AcDbSpline
 70
8
 71
3
 72
8
 73
4
 74
0
 40
0
 40
0
 40
0
 40
0
 40
1
 40
1
 40
1
 40
1
 10
6.506836
 20
593.565314
 30
0.0
 10
6.571505
 20
593.541014
 30
0.0
 10
6.635592
 20
593.515589
 30
0.0
 10
6.708985
 20
593.508164
 30
0.0
  0
SPLINE
  5
10a
100
AcDbEntity
  8
Layer_1
 62
7
100
AcDbSpline
 70
8
 71
3
 72
8
 73
4
 74
0
 40
0
 40
0
 40
0
 40
0
 40
1
 40
1
 40
1
 40
1
 10
6.708985
 20
593.508164
 30
0.0
 10
10.364089
 20
593.704154
 30
0.0
 10
14.053068
 20
593.330414
 30
0.0
 10
17.714356
 20
593.494964
 30
0.0
  0
SPLINE
  5
10b
100
AcDbEntity
  8
Layer_1
 62
7
100
AcDbSpline
 70
8
 71
3
 72
8
 73
4
 74
0
 40
0
 40
0
 40
0
 40
0
 40
1
 40
1
 40
1
 40
1
 10
17.714356
 20
593.494964
 30
0.0
 10
21.725449
 20
593.500214
 30
0.0
 10
23.577813
 20
593.497214
 30
0.0
 10
25.354980
 20
593.494964
 30
0.0
  0
LWPOLYLINE
  5
10c
100
AcDbEntity
  8
Layer_1
 62
7
100
AcDbPolyline
 90
2
 70
0
 10
6.506836
 20
656.370486
 30
0.0
 10
6.506836
 20
593.565314
 30
0.0
  0
SPLINE
  5
10d
100
AcDbEntity
  8
Layer_1
 62
7
100
AcDbSpline
 70
8
 71
3
 72
8
 73
4
 74
0
 40
0
 40
0
 40
0
 40
0
 40
1
 40
1
 40
1
 40
1
 10
31.193847
 20
529.550183
 30
0.0
 10
33.748247
 20
529.419150
 30
0.0
 10
49.101765
 20
529.409550
 30
0.0
 10
135.350098
 20
529.409558
 30
0.0
  0
LWPOLYLINE
  5
10e
100
AcDbEntity
  8
Layer_1
 62
7
100
AcDbPolyline
 90
8
 70
0
 10
25.354980
 20
593.494964
 30
0.0
 10
25.354980
 20
593.497964
 30
0.0
 10
31.193847
 20
593.497964
 30
0.0
 10
31.193847
 20
575.681070
 30
0.0
 10
31.193847
 20
574.791907
 30
0.0
 10
31.193847
 20
574.346595
 30
0.0
 10
31.193847
 20
574.018440
 30
0.0
 10
31.193847
 20
529.550183
 30
0.0
  0
SPLINE
  5
10f
100
AcDbEntity
  8
Layer_1
 62
7
100
AcDbSpline
 70
8
 71
3
 72
8
 73
4
 74
0
 40
0
 40
0
 40
0
 40
0
 40
1
 40
1
 40
1
 40
1
 10
240.038082
 20
539.547735
 30
0.0
 10
240.017757
 20
540.054645
 30
0.0
 10
239.993457
 20
540.386655
 30
0.0
 10
239.963382
 20
540.368048
 30
0.0
  0
SPLINE
  5
110
100
AcDbEntity
  8
Layer_1
 62
7
100
AcDbSpline
 70
8
 71
3
 72
8
 73
4
 74
0
 40
0
 40
0
 40
0
 40
0
 40
1
 40
1
 40
1
 40
1
 10
239.963382
 20
540.368048
 30
0.0
 10
239.896932
 20
540.326948
 30
0.0
 10
239.875182
 20
540.346148
 30
0.0
 10
239.915082
 20
540.410498
 30
0.0
  0
SPLINE
  5
111
100
AcDbEntity
  8
Layer_1
 62
7
100
AcDbSpline
 70
8
 71
3
 72
8
 73
4
 74
0
 40
0
 40
0
 40
0
 40
0
 40
1
 40
1
 40
1
 40
1
 10
239.915082
 20
540.410498
 30
0.0
 10
240.012057
 20
540.567600
 30
0.0
 10
240.017997
 20
540.871553
 30
0.0
 10
240.002974
 20
545.232765
 30
0.0
  0
LWPOLYLINE
  5
112
100
AcDbEntity
  8
Layer_1
 62
7
100
AcDbPolyline
 90
3
 70
0
 10
135.350098
 20
529.409558
 30
0.0
 10
240.038082
 20
529.409558
 30
0.0
 10
240.038082
 20
539.547735
 30
0.0
  0
SPLINE
  5
113
100
AcDbEntity
  8
Layer_1
 62
7
100
AcDbSpline
 70
8
 71
3
 72
8
 73
4
 74
0
 40
0
 40
0
 40
0
 40
0
 40
1
 40
1
 40
1
 40
1
 10
239.365752
 20
549.671242
 30
0.0
 10
239.021997
 20
550.043235
 30
0.0
 10
238.653657
 20
550.413697
 30
0.0
 10
238.546902
 20
550.494487
 30
0.0
  0
SPLINE
  5
114
100
AcDbEntity
  8
Layer_1
 62
7
100
AcDbSpline
 70
8
 71
3
 72
8
 73
4
 74
0
 40
0
 40
0
 40
0
 40
0
 40
1
 40
1
 40
1
 40
1
 10
238.546902
 20
550.494487
 30
0.0
 10
238.440162
 20
550.575240
 30
0.0
 10
236.846637
 20
552.131610
 30
0.0
 10
235.006377
 20
553.952977
 30
0.0
  0
SPLINE
  5
115
100
AcDbEntity
  8
Layer_1
 62
7
100
AcDbSpline
 70
8
 71
3
 72
8
 73
4
 74
0
 40
0
 40
0
 40
0
 40
0
 40
1
 40
1
 40
1
 40
1
 10
235.006377
 20
553.952977
 30
0.0
 10
233.166117
 20
555.774352
 30
0.0
 10
231.618515
 20
557.301382
 30
0.0
 10
231.566922
 20
557.347027
 30
0.0
  0
SPLINE
  5
116
100
AcDbEntity
  8
Layer_1
 62
7
100
AcDbSpline
 70
8
 71
3
 72
8
 73
4
 74
0
 40
0
 40
0
 40
0
 40
0
 40
1
 40
1
 40
1
 40
1
 10
231.566922
 20
557.347027
 30
0.0
 10
231.492672
 20
557.412577
 30
0.0
 10
228.781250
 20
560.111842
 30
0.0
 10
227.626490
 20
561.269872
 30
0.0
  0
SPLINE
  5
117
100
AcDbEntity
  8
Layer_1
 62
7
100
AcDbSpline
 70
8
 71
3
 72
8
 73
4
 74
0
 40
0
 40
0
 40
0
 40
0
 40
1
 40
1
 40
1
 40
1
 10
227.626490
 20
561.269872
 30
0.0
 10
224.071227
 20
564.835185
 30
0.0
 10
223.093655
 20
566.209560
 30
0.0
 10
222.464382
 20
568.529640
 30
0.0
  0
SPLINE
  5
118
100
AcDbEntity
  8
Layer_1
 62
7
100
AcDbSpline
 70
8
 71
3
 72
8
 73
4
 74
0
 40
0
 40
0
 40
0
 40
0
 40
1
 40
1
 40
1
 40
1
 10
222.464382
 20
568.529640
 30
0.0
 10
222.203420
 20
569.491740
 30
0.0
 10
222.186672
 20
569.778375
 30
0.0
 10
222.169947
 20
573.570165
 30
0.0
  0
SPLINE
  5
119
100
AcDbEntity
  8
Layer_1
 62
7
100
AcDbSpline
 70
8
 71
3
 72
8
 73
4
 74
0
 40
0
 40
0
 40
0
 40
0
 40
1
 40
1
 40
1
 40
1
 10
222.169947
 20
573.570165
 30
0.0
 10
222.160122
 20
575.781172
 30
0.0
 10
222.146547
 20
578.399992
 30
0.0
 10
222.139197
 20
579.389992
 30
0.0
  0
SPLINE
  5
11a
100
AcDbEntity
  8
Layer_1
 62
7
100
AcDbSpline
 70
8
 71
3
 72
8
 73
4
 74
0
 40
0
 40
0
 40
0
 40
0
 40
1
 40
1
 40
1
 40
1
 10
222.139197
 20
579.389992
 30
0.0
 10
222.131697
 20
580.379992
 30
0.0
 10
222.127122
 20
581.919405
 30
0.0
 10
222.128922
 20
582.810405
 30
0.0
  0
SPLINE
  5
11b
100
AcDbEntity
  8
Layer_1
 62
7
100
AcDbSpline
 70
8
 71
3
 72
8
 73
4
 74
0
 40
0
 40
0
 40
0
 40
0
 40
1
 40
1
 40
1
 40
1
 10
222.128922
 20
582.810405
 30
0.0
 10
222.130422
 20
583.701405
 30
0.0
 10
222.131922
 20
585.861697
 30
0.0
 10
222.131922
 20
587.610697
 30
0.0
  0
SPLINE
  5
11c
100
AcDbEntity
  8
Layer_1
 62
7
100
AcDbSpline
 70
8
 71
3
 72
8
 73
4
 74
0
 40
0
 40
0
 40
0
 40
0
 40
1
 40
1
 40
1
 40
1
 10
222.131922
 20
587.610697
 30
0.0
 10
222.132402
 20
594.075674
 30
0.0
 10
222.207455
 20
597.628657
 30
0.0
 10
222.360440
 20
598.469579
 30
0.0
  0
SPLINE
  5
11d
100
AcDbEntity
  8
Layer_1
 62
7
100
AcDbSpline
 70
8
 71
3
 72
8
 73
4
 74
0
 40
0
 40
0
 40
0
 40
0
 40
1
 40
1
 40
1
 40
1
 10
222.360440
 20
598.469579
 30
0.0
 10
222.444485
 20
598.931587
 30
0.0
 10
222.512877
 20
599.418629
 30
0.0
 10
222.511317
 20
599.550637
 30
0.0
  0
SPLINE
  5
11e
100
AcDbEntity
  8
Layer_1
 62
7
100
AcDbSpline
 70
8
 71
3
 72
8
 73
4
 74
0
 40
0
 40
0
 40
0
 40
0
 40
1
 40
1
 40
1
 40
1
 10
222.511317
 20
599.550637
 30
0.0
 10
222.502017
 20
600.372374
 30
0.0
 10
223.169817
 20
601.145384
 30
0.0
 10
224.102135
 20
601.391947
 30
0.0
  0
SPLINE
  5
11f
100
AcDbEntity
  8
Layer_1
 62
7
100
AcDbSpline
 70
8
 71
3
 72
8
 73
4
 74
0
 40
0
 40
0
 40
0
 40
0
 40
1
 40
1
 40
1
 40
1
 10
224.102135
 20
601.391947
 30
0.0
 10
224.365115
 20
601.461472
 30
0.0
 10
225.983075
 20
601.552597
 30
0.0
 10
227.696862
 20
601.594094
 30
0.0
  0
SPLINE
  5
120
100
AcDbEntity
  8
Layer_1
 62
7
100
AcDbSpline
 70
8
 71
3
 72
8
 73
4
 74
0
 40
0
 40
0
 40
0
 40
0
 40
1
 40
1
 40
1
 40
1
 10
227.696862
 20
601.594094
 30
0.0
 10
229.410672
 20
601.635569
 30
0.0
 10
230.908760
 20
601.721534
 30
0.0
 10
231.026457
 20
601.784527
 30
0.0
  0
SPLINE
  5
121
100
AcDbEntity
  8
Layer_1
 62
7
100
AcDbSpline
 70
8
 71
3
 72
8
 73
4
 74
0
 40
0
 40
0
 40
0
 40
0
 40
1
 40
1
 40
1
 40
1
 10
231.026457
 20
601.784527
 30
0.0
 10
231.226527
 20
601.891484
 30
0.0
 10
231.241130
 20
602.228017
 30
0.0
 10
231.247647
 20
606.904154
 30
0.0
  0
SPLINE
  5
122
100
AcDbEntity
  8
Layer_1
 62
7
100
AcDbSpline
 70
8
 71
3
 72
8
 73
4
 74
0
 40
0
 40
0
 40
0
 40
0
 40
1
 40
1
 40
1
 40
1
 10
231.247647
 20
606.904154
 30
0.0
 10
231.251397
 20
609.657322
 30
0.0
 10
231.264147
 20
617.484119
 30
0.0
 10
231.276972
 20
624.296242
 30
0.0
  0
SPLINE
  5
123
100
AcDbEntity
  8
Layer_1
 62
7
100
AcDbSpline
 70
8
 71
3
 72
8
 73
4
 74
0
 40
0
 40
0
 40
0
 40
0
 40
1
 40
1
 40
1
 40
1
 10
231.276972
 20
624.296242
 30
0.0
 10
231.298572
 20
635.929064
 30
0.0
 10
231.287322
 20
636.694581
 30
0.0
 10
231.090935
 20
636.890969
 30
0.0
  0
SPLINE
  5
124
100
AcDbEntity
  8
Layer_1
 62
7
100
AcDbSpline
 70
8
 71
3
 72
8
 73
4
 74
0
 40
0
 40
0
 40
0
 40
0
 40
1
 40
1
 40
1
 40
1
 10
231.090935
 20
636.890969
 30
0.0
 10
230.906967
 20
637.074974
 30
0.0
 10
230.487447
 20
637.110276
 30
0.0
 10
227.594352
 20
637.186866
 30
0.0
  0
SPLINE
  5
125
100
AcDbEntity
  8
Layer_1
 62
7
100
AcDbSpline
 70
8
 71
3
 72
8
 73
4
 74
0
 40
0
 40
0
 40
0
 40
0
 40
1
 40
1
 40
1
 40
1
 10
227.594352
 20
637.186866
 30
0.0
 10
225.786087
 20
637.234716
 30
0.0
 10
224.088312
 20
637.333131
 30
0.0
 10
223.820915
 20
637.405131
 30
0.0
  0
SPLINE
  5
126
100
AcDbEntity
  8
Layer_1
 62
7
100
AcDbSpline
 70
8
 71
3
 72
8
 73
4
 74
0
 40
0
 40
0
 40
0
 40
0
 40
1
 40
1
 40
1
 40
1
 10
223.820915
 20
637.405131
 30
0.0
 10
223.178990
 20
637.577984
 30
0.0
 10
222.534762
 20
638.323424
 30
0.0
 10
222.379512
 20
639.073581
 30
0.0
  0
SPLINE
  5
127
100
AcDbEntity
  8
Layer_1
 62
7
100
AcDbSpline
 70
8
 71
3
 72
8
 73
4
 74
0
 40
0
 40
0
 40
0
 40
0
 40
1
 40
1
 40
1
 40
1
 10
222.379512
 20
639.073581
 30
0.0
 10
222.316212
 20
639.379769
 30
0.0
 10
222.285155
 20
640.521696
 30
0.0
 10
222.310662
 20
641.610696
 30
0.0
  0
SPLINE
  5
128
100
AcDbEntity
  8
Layer_1
 62
7
100
AcDbSpline
 70
8
 71
3
 72
8
 73
4
 74
0
 40
0
 40
0
 40
0
 40
0
 40
1
 40
1
 40
1
 40
1
 10
222.310662
 20
641.610696
 30
0.0
 10
222.336087
 20
642.699696
 30
0.0
 10
222.376512
 20
646.634301
 30
0.0
 10
222.401487
 20
650.355809
 30
0.0
  0
SPLINE
  5
129
100
AcDbEntity
  8
Layer_1
 62
7
100
AcDbSpline
 70
8
 71
3
 72
8
 73
4
 74
0
 40
0
 40
0
 40
0
 40
0
 40
1
 40
1
 40
1
 40
1
 10
222.401487
 20
650.355809
 30
0.0
 10
222.377637
 20
663.105516
 30
0.0
 10
221.201472
 20
661.406331
 30
0.0
 10
232.245200
 20
661.412414
 30
0.0
  0
SPLINE
  5
12a
100
AcDbEntity
  8
Layer_1
 62
7
100
AcDbSpline
 70
8
 71
3
 72
8
 73
4
 74
0
 40
0
 40
0
 40
0
 40
0
 40
1
 40
1
 40
1
 40
1
 10
232.245200
 20
661.412414
 30
0.0
 10
238.024775
 20
661.416164
 30
0.0
 10
239.548294
 20
661.421189
 30
0.0
 10
240.038164
 20
661.522281
 30
0.0
  0
LWPOLYLINE
  5
12b
100
AcDbEntity
  8
Layer_1
 62
7
100
AcDbPolyline
 90
3
 70
0
 10
240.002974
 20
545.232765
 30
0.0
 10
239.989774
 20
548.994487
 30
0.0
 10
239.365752
 20
549.671242
 30
0.0
  0
SPLINE
  5
12c
100
AcDbEntity
  8
Layer_1
 62
7
100
AcDbSpline
 70
8
 71
3
 72
8
 73
4
 74
0
 40
0
 40
0
 40
0
 40
0
 40
1
 40
1
 40
1
 40
1
 10
188.604613
 20
839.999889
 30
0.0
 10
188.540413
 20
838.640811
 30
0.0
 10
188.463335
 20
838.100918
 30
0.0
 10
188.260378
 20
837.569713
 30
0.0
  0
SPLINE
  5
12d
100
AcDbEntity
  8
Layer_1
 62
7
100
AcDbSpline
 70
8
 71
3
 72
8
 73
4
 74
0
 40
0
 40
0
 40
0
 40
0
 40
1
 40
1
 40
1
 40
1
 10
188.260378
 20
837.569713
 30
0.0
 10
188.116858
 20
837.194132
 30
0.0
 10
187.987745
 20
836.992423
 30
0.0
 10
187.985105
 20
836.946224
 30
0.0
  0
SPLINE
  5
12e
100
AcDbEntity
  8
Layer_1
 62
7
100
AcDbSpline
 70
8
 71
3
 72
8
 73
4
 74
0
 40
0
 40
0
 40
0
 40
0
 40
1
 40
1
 40
1
 40
1
 10
187.985105
 20
836.946224
 30
0.0
 10
187.982855
 20
836.900024
 30
0.0
 10
187.912355
 20
836.794348
 30
0.0
 10
187.829833
 20
836.711849
 30
0.0
  0
SPLINE
  5
12f
100
AcDbEntity
  8
Layer_1
 62
7
100
AcDbSpline
 70
8
 71
3
 72
8
 73
4
 74
0
 40
0
 40
0
 40
0
 40
0
 40
1
 40
1
 40
1
 40
1
 10
187.829833
 20
836.711849
 30
0.0
 10
187.747318
 20
836.629348
 30
0.0
 10
187.680418
 20
836.489731
 30
0.0
 10
187.680418
 20
836.401302
 30
0.0
  0
SPLINE
  5
130
100
AcDbEntity
  8
Layer_1
 62
7
100
AcDbSpline
 70
8
 71
3
 72
8
 73
4
 74
0
 40
0
 40
0
 40
0
 40
0
 40
1
 40
1
 40
1
 40
1
 10
187.680418
 20
836.401302
 30
0.0
 10
187.680418
 20
836.260978
 30
0.0
 10
187.416500
 20
835.721979
 30
0.0
 10
187.018310
 20
835.050716
 30
0.0
  0
SPLINE
  5
131
100
AcDbEntity
  8
Layer_1
 62
7
100
AcDbSpline
 70
8
 71
3
 72
8
 73
4
 74
0
 40
0
 40
0
 40
0
 40
0
 40
1
 40
1
 40
1
 40
1
 10
187.018310
 20
835.050716
 30
0.0
 10
186.791983
 20
834.669162
 30
0.0
 10
185.465908
 20
833.349438
 30
0.0
 10
184.793210
 20
832.835872
 30
0.0
  0
SPLINE
  5
132
100
AcDbEntity
  8
Layer_1
 62
7
100
AcDbSpline
 70
8
 71
3
 72
8
 73
4
 74
0
 40
0
 40
0
 40
0
 40
0
 40
1
 40
1
 40
1
 40
1
 10
184.793210
 20
832.835872
 30
0.0
 10
183.395480
 20
831.768760
 30
0.0
 10
182.102510
 20
831.198665
 30
0.0
 10
180.433835
 20
830.912532
 30
0.0
  0
SPLINE
  5
133
100
AcDbEntity
  8
Layer_1
 62
7
100
AcDbSpline
 70
8
 71
3
 72
8
 73
4
 74
0
 40
0
 40
0
 40
0
 40
0
 40
1
 40
1
 40
1
 40
1
 10
180.433835
 20
830.912532
 30
0.0
 10
177.844978
 20
830.468604
 30
0.0
 10
176.037268
 20
830.822944
 30
0.0
 10
173.409913
 20
832.289486
 30
0.0
  0
SPLINE
  5
134
100
AcDbEntity
  8
Layer_1
 62
7
100
AcDbSpline
 70
8
 71
3
 72
8
 73
4
 74
0
 40
0
 40
0
 40
0
 40
0
 40
1
 40
1
 40
1
 40
1
 10
173.409913
 20
832.289486
 30
0.0
 10
172.969993
 20
832.535043
 30
0.0
 10
171.565835
 20
833.717795
 30
0.0
 10
171.430910
 20
833.956478
 30
0.0
  0
SPLINE
  5
135
100
AcDbEntity
  8
Layer_1
 62
7
100
AcDbSpline
 70
8
 71
3
 72
8
 73
4
 74
0
 40
0
 40
0
 40
0
 40
0
 40
1
 40
1
 40
1
 40
1
 10
171.430910
 20
833.956478
 30
0.0
 10
171.370760
 20
834.062879
 30
0.0
 10
171.257503
 20
834.188975
 30
0.0
 10
171.178955
 20
834.236263
 30
0.0
  0
SPLINE
  5
136
100
AcDbEntity
  8
Layer_1
 62
7
100
AcDbSpline
 70
8
 71
3
 72
8
 73
4
 74
0
 40
0
 40
0
 40
0
 40
0
 40
1
 40
1
 40
1
 40
1
 10
171.178955
 20
834.236263
 30
0.0
 10
171.041758
 20
834.318863
 30
0.0
 10
170.761355
 20
834.752338
 30
0.0
 10
169.840085
 20
836.310482
 30
0.0
  0
SPLINE
  5
137
100
AcDbEntity
  8
Layer_1
 62
7
100
AcDbSpline
 70
8
 71
3
 72
8
 73
4
 74
0
 40
0
 40
0
 40
0
 40
0
 40
1
 40
1
 40
1
 40
1
 10
169.840085
 20
836.310482
 30
0.0
 10
169.605965
 20
836.706481
 30
0.0
 10
169.415285
 20
837.165014
 30
0.0
 10
169.415285
 20
837.330013
 30
0.0
  0
SPLINE
  5
138
100
AcDbEntity
  8
Layer_1
 62
7
100
AcDbSpline
 70
8
 71
3
 72
8
 73
4
 74
0
 40
0
 40
0
 40
0
 40
0
 40
1
 40
1
 40
1
 40
1
 10
169.415285
 20
837.330013
 30
0.0
 10
169.415458
 20
837.495013
 30
0.0
 10
169.333505
 20
837.926486
 30
0.0
 10
169.233643
 20
838.289485
 30
0.0
  0
SPLINE
  5
139
100
AcDbEntity
  8
Layer_1
 62
7
100
AcDbSpline
 70
8
 71
3
 72
8
 73
4
 74
0
 40
0
 40
0
 40
0
 40
0
 40
1
 40
1
 40
1
 40
1
 10
169.233643
 20
838.289485
 30
0.0
 10
169.016825
 20
839.077719
 30
0.0
 10
169.002853
 20
839.212788
 30
0.0
 10
168.978763
 20
840.719661
 30
0.0
  0
LWPOLYLINE
  5
13a
100
AcDbEntity
  8
Layer_1
 62
7
100
AcDbPolyline
 90
4
 70
0
 10
240.038164
 20
661.522281
 30
0.0
 10
240.045664
 20
841.744302
 30
0.0
 10
188.674813
 20
841.607434
 30
0.0
 10
188.604613
 20
839.999889
 30
0.0
  0
LWPOLYLINE
  5
13b
100
AcDbEntity
  8
Layer_1
 62
7
100
AcDbPolyline
 90
4
 70
0
 10
168.978763
 20
840.719661
 30
0.0
 10
168.964888
 20
841.744368
 30
0.0
 10
112.525739
 20
841.748546
 30
0.0
 10
112.525484
 20
841.748238
 30
0.0
  0
SPLINE
  5
13c
100
AcDbEntity
  8
Layer_1
 62
7
100
AcDbSpline
 70
8
 71
3
 72
8
 73
4
 74
0
 40
0
 40
0
 40
0
 40
0
 40
1
 40
1
 40
1
 40
1
 10
206.088867
 20
835.050408
 30
0.0
 10
207.254075
 20
835.050408
 30
0.0
 10
207.409557
 20
835.022423
 30
0.0
 10
207.873042
 20
834.736932
 30
0.0
  0
SPLINE
  5
13d
100
AcDbEntity
  8
Layer_1
 62
7
100
AcDbSpline
 70
8
 71
3
 72
8
 73
4
 74
0
 40
0
 40
0
 40
0
 40
0
 40
1
 40
1
 40
1
 40
1
 10
207.873042
 20
834.736932
 30
0.0
 10
208.909280
 20
834.098626
 30
0.0
 10
209.279292
 20
833.812376
 30
0.0
 10
209.279292
 20
833.652947
 30
0.0
  0
SPLINE
  5
13e
100
AcDbEntity
  8
Layer_1
 62
7
100
AcDbSpline
 70
8
 71
3
 72
8
 73
4
 74
0
 40
0
 40
0
 40
0
 40
0
 40
1
 40
1
 40
1
 40
1
 10
209.279292
 20
833.652947
 30
0.0
 10
209.279292
 20
833.562922
 30
0.0
 10
209.327967
 20
833.490350
 30
0.0
 10
209.386227
 20
833.490350
 30
0.0
  0
SPLINE
  5
13f
100
AcDbEntity
  8
Layer_1
 62
7
100
AcDbSpline
 70
8
 71
3
 72
8
 73
4
 74
0
 40
0
 40
0
 40
0
 40
0
 40
1
 40
1
 40
1
 40
1
 10
209.386227
 20
833.490350
 30
0.0
 10
209.444502
 20
833.490350
 30
0.0
 10
209.632827
 20
833.192274
 30
0.0
 10
209.805170
 20
832.828241
 30
0.0
  0
SPLINE
  5
140
100
AcDbEntity
  8
Layer_1
 62
7
100
AcDbSpline
 70
8
 71
3
 72
8
 73
4
 74
0
 40
0
 40
0
 40
0
 40
0
 40
1
 40
1
 40
1
 40
1
 10
209.805170
 20
832.828241
 30
0.0
 10
210.179030
 20
832.038643
 30
0.0
 10
210.359772
 20
830.600095
 30
0.0
 10
210.121580
 20
830.313104
 30
0.0
  0
SPLINE
  5
141
100
AcDbEntity
  8
Layer_1
 62
7
100
AcDbSpline
 70
8
 71
3
 72
8
 73
4
 74
0
 40
0
 40
0
 40
0
 40
0
 40
1
 40
1
 40
1
 40
1
 10
210.121580
 20
830.313104
 30
0.0
 10
209.996570
 20
830.162459
 30
0.0
 10
210.003770
 20
830.129998
 30
0.0
 10
210.161105
 20
830.129998
 30
0.0
  0
SPLINE
  5
142
100
AcDbEntity
  8
Layer_1
 62
7
100
AcDbSpline
 70
8
 71
3
 72
8
 73
4
 74
0
 40
0
 40
0
 40
0
 40
0
 40
1
 40
1
 40
1
 40
1
 10
210.161105
 20
830.129998
 30
0.0
 10
210.281532
 20
830.129999
 30
0.0
 10
210.326255
 20
830.063345
 30
0.0
 10
210.282687
 20
829.949822
 30
0.0
  0
SPLINE
  5
143
100
AcDbEntity
  8
Layer_1
 62
7
100
AcDbSpline
 70
8
 71
3
 72
8
 73
4
 74
0
 40
0
 40
0
 40
0
 40
0
 40
1
 40
1
 40
1
 40
1
 10
210.282687
 20
829.949822
 30
0.0
 10
210.244662
 20
829.850822
 30
0.0
 10
210.111740
 20
829.769647
 30
0.0
 10
209.986790
 20
829.769647
 30
0.0
  0
SPLINE
  5
144
100
AcDbEntity
  8
Layer_1
 62
7
100
AcDbSpline
 70
8
 71
3
 72
8
 73
4
 74
0
 40
0
 40
0
 40
0
 40
0
 40
1
 40
1
 40
1
 40
1
 10
209.986790
 20
829.769647
 30
0.0
 10
209.841117
 20
829.769647
 30
0.0
 10
209.759742
 20
829.684698
 30
0.0
 10
209.759742
 20
829.533807
 30
0.0
  0
SPLINE
  5
145
100
AcDbEntity
  8
Layer_1
 62
7
100
AcDbSpline
 70
8
 71
3
 72
8
 73
4
 74
0
 40
0
 40
0
 40
0
 40
0
 40
1
 40
1
 40
1
 40
1
 10
209.759742
 20
829.533807
 30
0.0
 10
209.759742
 20
829.404377
 30
0.0
 10
209.657585
 20
829.202171
 30
0.0
 10
209.532687
 20
829.084100
 30
0.0
  0
SPLINE
  5
146
100
AcDbEntity
  8
Layer_1
 62
7
100
AcDbSpline
 70
8
 71
3
 72
8
 73
4
 74
0
 40
0
 40
0
 40
0
 40
0
 40
1
 40
1
 40
1
 40
1
 10
209.532687
 20
829.084100
 30
0.0
 10
209.407797
 20
828.966029
 30
0.0
 10
209.286072
 20
828.762707
 30
0.0
 10
209.261690
 20
828.631463
 30
0.0
  0
SPLINE
  5
147
100
AcDbEntity
  8
Layer_1
 62
7
100
AcDbSpline
 70
8
 71
3
 72
8
 73
4
 74
0
 40
0
 40
0
 40
0
 40
0
 40
1
 40
1
 40
1
 40
1
 10
209.261690
 20
828.631463
 30
0.0
 10
209.237315
 20
828.500223
 30
0.0
 10
209.110220
 20
828.372370
 30
0.0
 10
208.978977
 20
828.347283
 30
0.0
  0
SPLINE
  5
148
100
AcDbEntity
  8
Layer_1
 62
7
100
AcDbSpline
 70
8
 71
3
 72
8
 73
4
 74
0
 40
0
 40
0
 40
0
 40
0
 40
1
 40
1
 40
1
 40
1
 10
208.978977
 20
828.347283
 30
0.0
 10
208.847735
 20
828.322203
 30
0.0
 10
208.550795
 20
828.154218
 30
0.0
 10
208.319802
 20
827.975213
 30
0.0
  0
SPLINE
  5
149
100
AcDbEntity
  8
Layer_1
 62
7
100
AcDbSpline
 70
8
 71
3
 72
8
 73
4
 74
0
 40
0
 40
0
 40
0
 40
0
 40
1
 40
1
 40
1
 40
1
 10
208.319802
 20
827.975213
 30
0.0
 10
208.088802
 20
827.796206
 30
0.0
 10
207.684372
 20
827.568197
 30
0.0
 10
207.420387
 20
827.466912
 30
0.0
  0
SPLINE
  5
14a
100
AcDbEntity
  8
Layer_1
 62
7
100
AcDbSpline
 70
8
 71
3
 72
8
 73
4
 74
0
 40
0
 40
0
 40
0
 40
0
 40
1
 40
1
 40
1
 40
1
 10
207.420387
 20
827.466912
 30
0.0
 10
206.792232
 20
827.225905
 30
0.0
 10
206.105900
 20
827.104159
 30
0.0
 10
205.995095
 20
827.214959
 30
0.0
  0
SPLINE
  5
14b
100
AcDbEntity
  8
Layer_1
 62
7
100
AcDbSpline
 70
8
 71
3
 72
8
 73
4
 74
0
 40
0
 40
0
 40
0
 40
0
 40
1
 40
1
 40
1
 40
1
 10
205.995095
 20
827.214959
 30
0.0
 10
205.946570
 20
827.263454
 30
0.0
 10
205.715345
 20
827.315771
 30
0.0
 10
205.482395
 20
827.330682
 30
0.0
  0
SPLINE
  5
14c
100
AcDbEntity
  8
Layer_1
 62
7
100
AcDbSpline
 70
8
 71
3
 72
8
 73
4
 74
0
 40
0
 40
0
 40
0
 40
0
 40
1
 40
1
 40
1
 40
1
 10
205.482395
 20
827.330682
 30
0.0
 10
205.249452
 20
827.345585
 30
0.0
 10
204.991092
 20
827.414212
 30
0.0
 10
204.908180
 20
827.483026
 30
0.0
  0
SPLINE
  5
14d
100
AcDbEntity
  8
Layer_1
 62
7
100
AcDbSpline
 70
8
 71
3
 72
8
 73
4
 74
0
 40
0
 40
0
 40
0
 40
0
 40
1
 40
1
 40
1
 40
1
 10
204.908180
 20
827.483026
 30
0.0
 10
204.825267
 20
827.551831
 30
0.0
 10
204.730130
 20
827.578917
 30
0.0
 10
204.695772
 20
827.544548
 30
0.0
  0
SPLINE
  5
14e
100
AcDbEntity
  8
Layer_1
 62
7
100
AcDbSpline
 70
8
 71
3
 72
8
 73
4
 74
0
 40
0
 40
0
 40
0
 40
0
 40
1
 40
1
 40
1
 40
1
 10
204.695772
 20
827.544548
 30
0.0
 10
204.661422
 20
827.510176
 30
0.0
 10
204.457025
 20
827.646619
 30
0.0
 10
204.241677
 20
827.847771
 30
0.0
  0
SPLINE
  5
14f
100
AcDbEntity
  8
Layer_1
 62
7
100
AcDbSpline
 70
8
 71
3
 72
8
 73
4
 74
0
 40
0
 40
0
 40
0
 40
0
 40
1
 40
1
 40
1
 40
1
 10
204.241677
 20
827.847771
 30
0.0
 10
203.935565
 20
828.133733
 30
0.0
 10
203.814012
 20
828.184787
 30
0.0
 10
203.685035
 20
828.077751
 30
0.0
  0
SPLINE
  5
150
100
AcDbEntity
  8
Layer_1
 62
7
100
AcDbSpline
 70
8
 71
3
 72
8
 73
4
 74
0
 40
0
 40
0
 40
0
 40
0
 40
1
 40
1
 40
1
 40
1
 10
203.685035
 20
828.077751
 30
0.0
 10
203.553905
 20
827.968929
 30
0.0
 10
203.519502
 20
827.992477
 30
0.0
 10
203.519510
 20
828.194939
 30
0.0
  0
SPLINE
  5
151
100
AcDbEntity
  8
Layer_1
 62
7
100
AcDbSpline
 70
8
 71
3
 72
8
 73
4
 74
0
 40
0
 40
0
 40
0
 40
0
 40
1
 40
1
 40
1
 40
1
 10
203.519510
 20
828.194939
 30
0.0
 10
203.519510
 20
828.341334
 30
0.0
 10
203.444262
 20
828.449822
 30
0.0
 10
203.340792
 20
828.449822
 30
0.0
  0
SPLINE
  5
152
100
AcDbEntity
  8
Layer_1
 62
7
100
AcDbSpline
 70
8
 71
3
 72
8
 73
4
 74
0
 40
0
 40
0
 40
0
 40
0
 40
1
 40
1
 40
1
 40
1
 10
203.340792
 20
828.449822
 30
0.0
 10
203.241807
 20
828.449822
 30
0.0
 10
203.160620
 20
828.531001
 30
0.0
 10
203.160620
 20
828.629997
 30
0.0
  0
SPLINE
  5
153
100
AcDbEntity
  8
Layer_1
 62
7
100
AcDbSpline
 70
8
 71
3
 72
8
 73
4
 74
0
 40
0
 40
0
 40
0
 40
0
 40
1
 40
1
 40
1
 40
1
 10
203.160620
 20
828.629997
 30
0.0
 10
203.160620
 20
828.728997
 30
0.0
 10
203.079455
 20
828.810173
 30
0.0
 10
202.980440
 20
828.810173
 30
0.0
  0
SPLINE
  5
154
100
AcDbEntity
  8
Layer_1
 62
7
100
AcDbSpline
 70
8
 71
3
 72
8
 73
4
 74
0
 40
0
 40
0
 40
0
 40
0
 40
1
 40
1
 40
1
 40
1
 10
202.980440
 20
828.810173
 30
0.0
 10
202.881462
 20
828.810173
 30
0.0
 10
202.795400
 20
828.850028
 30
0.0
 10
202.790015
 20
828.899529
 30
0.0
  0
SPLINE
  5
155
100
AcDbEntity
  8
Layer_1
 62
7
100
AcDbSpline
 70
8
 71
3
 72
8
 73
4
 74
0
 40
0
 40
0
 40
0
 40
0
 40
1
 40
1
 40
1
 40
1
 10
202.790015
 20
828.899529
 30
0.0
 10
202.784765
 20
828.949029
 30
0.0
 10
202.762340
 20
829.124178
 30
0.0
 10
202.740215
 20
829.289177
 30
0.0
  0
SPLINE
  5
156
100
AcDbEntity
  8
Layer_1
 62
7
100
AcDbSpline
 70
8
 71
3
 72
8
 73
4
 74
0
 40
0
 40
0
 40
0
 40
0
 40
1
 40
1
 40
1
 40
1
 10
202.740215
 20
829.289177
 30
0.0
 10
202.718240
 20
829.454177
 30
0.0
 10
202.671065
 20
829.879049
 30
0.0
 10
202.634750
 20
830.232536
 30
0.0
  0
SPLINE
  5
157
100
AcDbEntity
  8
Layer_1
 62
7
100
AcDbSpline
 70
8
 71
3
 72
8
 73
4
 74
0
 40
0
 40
0
 40
0
 40
0
 40
1
 40
1
 40
1
 40
1
 10
202.634750
 20
830.232536
 30
0.0
 10
202.598450
 20
830.586025
 30
0.0
 10
202.508382
 20
830.947476
 30
0.0
 10
202.435527
 20
831.035271
 30
0.0
  0
SPLINE
  5
158
100
AcDbEntity
  8
Layer_1
 62
7
100
AcDbSpline
 70
8
 71
3
 72
8
 73
4
 74
0
 40
0
 40
0
 40
0
 40
0
 40
1
 40
1
 40
1
 40
1
 10
202.435527
 20
831.035271
 30
0.0
 10
202.340652
 20
831.149473
 30
0.0
 10
202.339422
 20
831.262159
 30
0.0
 10
202.431027
 20
831.433709
 30
0.0
  0
SPLINE
  5
159
100
AcDbEntity
  8
Layer_1
 62
7
100
AcDbSpline
 70
8
 71
3
 72
8
 73
4
 74
0
 40
0
 40
0
 40
0
 40
0
 40
1
 40
1
 40
1
 40
1
 10
202.431027
 20
831.433709
 30
0.0
 10
202.588325
 20
831.727730
 30
0.0
 10
202.599027
 20
832.135457
 30
0.0
 10
202.450077
 20
832.189568
 30
0.0
  0
SPLINE
  5
15a
100
AcDbEntity
  8
Layer_1
 62
7
100
AcDbSpline
 70
8
 71
3
 72
8
 73
4
 74
0
 40
0
 40
0
 40
0
 40
0
 40
1
 40
1
 40
1
 40
1
 10
202.450077
 20
832.189568
 30
0.0
 10
202.389627
 20
832.211565
 30
0.0
 10
202.368087
 20
832.377977
 30
0.0
 10
202.403202
 20
832.558709
 30
0.0
  0
SPLINE
  5
15b
100
AcDbEntity
  8
Layer_1
 62
7
100
AcDbSpline
 70
8
 71
3
 72
8
 73
4
 74
0
 40
0
 40
0
 40
0
 40
0
 40
1
 40
1
 40
1
 40
1
 10
202.403202
 20
832.558709
 30
0.0
 10
202.438302
 20
832.739437
 30
0.0
 10
202.510062
 20
832.860881
 30
0.0
 10
202.562870
 20
832.828240
 30
0.0
  0
SPLINE
  5
15c
100
AcDbEntity
  8
Layer_1
 62
7
100
AcDbSpline
 70
8
 71
3
 72
8
 73
4
 74
0
 40
0
 40
0
 40
0
 40
0
 40
1
 40
1
 40
1
 40
1
 10
202.562870
 20
832.828240
 30
0.0
 10
202.615670
 20
832.795600
 30
0.0
 10
202.776410
 20
832.958697
 30
0.0
 10
202.920297
 20
833.191521
 30
0.0
  0
SPLINE
  5
15d
100
AcDbEntity
  8
Layer_1
 62
7
100
AcDbSpline
 70
8
 71
3
 72
8
 73
4
 74
0
 40
0
 40
0
 40
0
 40
0
 40
1
 40
1
 40
1
 40
1
 10
202.920297
 20
833.191521
 30
0.0
 10
203.064185
 20
833.424345
 30
0.0
 10
203.380700
 20
833.759536
 30
0.0
 10
203.621952
 20
833.937126
 30
0.0
  0
SPLINE
  5
15e
100
AcDbEntity
  8
Layer_1
 62
7
100
AcDbSpline
 70
8
 71
3
 72
8
 73
4
 74
0
 40
0
 40
0
 40
0
 40
0
 40
1
 40
1
 40
1
 40
1
 10
203.621952
 20
833.937126
 30
0.0
 10
203.863205
 20
834.114718
 30
0.0
 10
204.229505
 20
834.437905
 30
0.0
 10
204.436407
 20
834.654900
 30
0.0
  0
LWPOLYLINE
  5
15f
100
AcDbEntity
  8
Layer_1
 62
7
100
AcDbPolyline
 90
2
 70
0
 10
204.812982
 20
835.050408
 30
0.0
 10
206.088867
 20
835.050408
 30
0.0
  0
LWPOLYLINE
  5
160
100
AcDbEntity
  8
Layer_1
 62
7
100
AcDbPolyline
 90
2
 70
0
 10
204.436407
 20
834.654900
 30
0.0
 10
204.812982
 20
835.050408
 30
0.0
  0
SPLINE
  5
161
100
AcDbEntity
  8
Layer_1
 62
7
100
AcDbSpline
 70
8
 71
3
 72
8
 73
4
 74
0
 40
0
 40
0
 40
0
 40
0
 40
1
 40
1
 40
1
 40
1
 10
6.486411
 20
656.455425
 30
0.0
 10
6.498020
 20
656.455425
 30
0.0
 10
6.507432
 20
656.446013
 30
0.0
 10
6.507432
 20
656.434404
 30
0.0
  0
LWPOLYLINE
  5
162
100
AcDbEntity
  8
Layer_1
 62
7
100
AcDbPolyline
 90
2
 70
0
 10
3.972084
 20
656.455425
 30
0.0
 10
6.486411
 20
656.455425
 30
0.0
  0
SPLINE
  5
163
100
AcDbEntity
  8
Layer_1
 62
7
100
AcDbSpline
 70
8
 71
3
 72
8
 73
4
 74
0
 40
0
 40
0
 40
0
 40
0
 40
1
 40
1
 40
1
 40
1
 10
6.507432
 20
592.422726
 30
0.0
 10
6.507432
 20
592.411116
 30
0.0
 10
6.498020
 20
592.401705
 30
0.0
 10
6.486411
 20
592.401705
 30
0.0
  0
LWPOLYLINE
  5
164
100
AcDbEntity
  8
Layer_1
 62
7
100
AcDbPolyline
 90
2
 70
0
 10
6.507432
 20
656.434404
 30
0.0
 10
6.507432
 20
592.422726
 30
0.0
  0
SPLINE
  5
165
100
AcDbEntity
  8
Layer_1
 62
7
100
AcDbSpline
 70
8
 71
3
 72
8
 73
4
 74
0
 40
0
 40
0
 40
0
 40
0
 40
1
 40
1
 40
1
 40
1
 10
3.972084
 20
592.401705
 30
0.0
 10
3.966509
 20
592.401705
 30
0.0
 10
3.961162
 20
592.403920
 30
0.0
 10
3.957220
 20
592.407862
 30
0.0
  0
SPLINE
  5
166
100
AcDbEntity
  8
Layer_1
 62
7
100
AcDbSpline
 70
8
 71
3
 72
8
 73
4
 74
0
 40
0
 40
0
 40
0
 40
0
 40
1
 40
1
 40
1
 40
1
 10
3.957220
 20
592.407862
 30
0.0
 10
3.953277
 20
592.411804
 30
0.0
 10
3.951063
 20
592.417151
 30
0.0
 10
3.951063
 20
592.422726
 30
0.0
  0
LWPOLYLINE
  5
167
100
AcDbEntity
  8
Layer_1
 62
7
100
AcDbPolyline
 90
2
 70
0
 10
6.486411
 20
592.401705
 30
0.0
 10
3.972084
 20
592.401705
 30
0.0
  0
SPLINE
  5
168
100
AcDbEntity
  8
Layer_1
 62
7
100
AcDbSpline
 70
8
 71
3
 72
8
 73
4
 74
0
 40
0
 40
0
 40
0
 40
0
 40
1
 40
1
 40
1
 40
1
 10
3.951063
 20
656.434404
 30
0.0
 10
3.951063
 20
656.439979
 30
0.0
 10
3.953277
 20
656.445326
 30
0.0
 10
3.957220
 20
656.449268
 30
0.0
  0
SPLINE
  5
169
100
AcDbEntity
  8
Layer_1
 62
7
100
AcDbSpline
 70
8
 71
3
 72
8
 73
4
 74
0
 40
0
 40
0
 40
0
 40
0
 40
1
 40
1
 40
1
 40
1
 10
3.957220
 20
656.449268
 30
0.0
 10
3.961162
 20
656.453210
 30
0.0
 10
3.966509
 20
656.455425
 30
0.0
 10
3.972084
 20
656.455425
 30
0.0
  0
LWPOLYLINE
  5
16a
100
AcDbEntity
  8
Layer_1
 62
7
100
AcDbPolyline
 90
2
 70
0
 10
3.951063
 20
592.422726
 30
0.0
 10
3.951063
 20
656.434404
 30
0.0
  0
LWPOLYLINE
  5
16b
100
AcDbEntity
  8
Layer_1
 62
7
100
AcDbPolyline
 90
1
 70
1
 10
3.972084
 20
656.455425
 30
0.0
  0
SPLINE
  5
16c
100
AcDbEntity
  8
Layer_1
 62
7
100
AcDbSpline
 70
8
 71
3
 72
8
 73
4
 74
0
 40
0
 40
0
 40
0
 40
0
 40
1
 40
1
 40
1
 40
1
 10
-3.325568
 20
734.261834
 30
0.0
 10
-1.045330
 20
734.261834
 30
0.0
 10
0.803168
 20
732.413336
 30
0.0
 10
0.803168
 20
730.133098
 30
0.0
  0
LWPOLYLINE
  5
16d
100
AcDbEntity
  8
Layer_1
 62
7
100
AcDbPolyline
 90
2
 70
0
 10
3.801659
 20
734.261834
 30
0.0
 10
-3.325568
 20
734.261834
 30
0.0
  0
SPLINE
  5
16e
100
AcDbEntity
  8
Layer_1
 62
7
100
AcDbSpline
 70
8
 71
3
 72
8
 73
4
 74
0
 40
0
 40
0
 40
0
 40
0
 40
1
 40
1
 40
1
 40
1
 10
0.803168
 20
659.865935
 30
0.0
 10
0.803168
 20
657.585697
 30
0.0
 10
-1.045330
 20
655.737199
 30
0.0
 10
-3.325568
 20
655.737199
 30
0.0
  0
LWPOLYLINE
  5
16f
100
AcDbEntity
  8
Layer_1
 62
7
100
AcDbPolyline
 90
2
 70
0
 10
0.803168
 20
730.133098
 30
0.0
 10
0.803168
 20
659.865935
 30
0.0
  0
SPLINE
  5
170
100
AcDbEntity
  8
Layer_1
 62
7
100
AcDbSpline
 70
8
 71
3
 72
8
 73
4
 74
0
 40
0
 40
0
 40
0
 40
0
 40
1
 40
1
 40
1
 40
1
 10
3.801659
 20
655.737199
 30
0.0
 10
1.521422
 20
655.737199
 30
0.0
 10
-0.327076
 20
657.585697
 30
0.0
 10
-0.327076
 20
659.865935
 30
0.0
  0
LWPOLYLINE
  5
171
100
AcDbEntity
  8
Layer_1
 62
7
100
AcDbPolyline
 90
2
 70
0
 10
-3.325568
 20
655.737199
 30
0.0
 10
3.801659
 20
655.737199
 30
0.0
  0
SPLINE
  5
172
100
AcDbEntity
  8
Layer_1
 62
7
100
AcDbSpline
 70
8
 71
3
 72
8
 73
4
 74
0
 40
0
 40
0
 40
0
 40
0
 40
1
 40
1
 40
1
 40
1
 10
-0.327076
 20
730.133098
 30
0.0
 10
-0.327076
 20
731.228107
 30
0.0
 10
0.107914
 20
732.278267
 30
0.0
 10
0.882202
 20
733.052555
 30
0.0
  0
SPLINE
  5
173
100
AcDbEntity
  8
Layer_1
 62
7
100
AcDbSpline
 70
8
 71
3
 72
8
 73
4
 74
0
 40
0
 40
0
 40
0
 40
0
 40
1
 40
1
 40
1
 40
1
 10
0.882202
 20
733.052555
 30
0.0
 10
1.656490
 20
733.826843
 30
0.0
 10
2.706650
 20
734.261834
 30
0.0
 10
3.801659
 20
734.261834
 30
0.0
  0
LWPOLYLINE
  5
174
100
AcDbEntity
  8
Layer_1
 62
7
100
AcDbPolyline
 90
2
 70
0
 10
-0.327076
 20
659.865935
 30
0.0
 10
-0.327076
 20
730.133098
 30
0.0
  0
LWPOLYLINE
  5
175
100
AcDbEntity
  8
Layer_1
 62
7
100
AcDbPolyline
 90
1
 70
1
 10
3.801659
 20
734.261834
 30
0.0
  0
ENDSEC
  0
SECTION
  2
OBJECTS
  0
DICTIONARY
  5
C
330
0
100
AcDbDictionary
  3
ACAD_GROUP
350
D
  3
ACAD_MLINESTYLE
350
17
  0
DICTIONARY
  5
D
330
C
100
AcDbDictionary
  0
DICTIONARY
  5
1A
330
C
100
AcDbDictionary
  0
DICTIONARY
  5
17
330
C
100
AcDbDictionary
  3
STANDARD
350
18
  0
DICTIONARY
  5
19
330
C
100
AcDbDictionary
  0
ENDSEC
  0
EOF
